{"title":"The.Killing.Fields.1984.DVDRiP.XViD.Optional.NORDIC.Zen_Bud","uid":5789993,"size":2015081599,"categoryP":"video","categoryS":"movies","magnet":"?xt=urn:btih:eb81b7ce5141de4de93b37a28915ab679c087e30&amp;dn=The.Killing.Fields.1984.DVDRiP.XViD.Optional.NORDIC.Zen_Bud&amp;tr=udp%3A%2F%2Ftracker.openbittorrent.com%3A80&amp;tr=udp%3A%2F%2Fopen.demonii.com%3A1337&amp;tr=udp%3A%2F%2Ftracker.coppersurfer.tk%3A6969&amp;tr=udp%3A%2F%2Fexodus.desync.com%3A6969","seeders":0,"leechers":0,"uploader":"Zen_Bud","files":-1,"time":1282812494,"description":"General\nComplete name                    : The Killing Fields.avi\nFormat                           : AVI\nFile size                        : 1.86 GiB\nDuration                         : 2h 21mn\nOverall bit rate                 : 1 882 Kbps\n\nVideo\n\nFormat                           : MPEG-4 Visual\nCodec ID/Hint                    : XviD\nDuration                         : 2h 21mn\nBit rate                         : 1 757 Kbps\nWidth                            : 704 pixels\nHeight                           : 574 pixels\nDisplay aspect ratio             : 16:9\nStream size                      : 1.74 GiB (93%)\nWriting library                  : XviD 1.1.2 (UTC 2006-11-01)\n\nAudio\n\nFormat                           : MPEG Audio\nCodec ID/Hint                    : MP3\nDuration                         : 2h 21mn\nBit rate                         : 112 Kbps\nChannel(s)                       : 2 channels\nSampling rate                    : 48.0 KHz\nStream size                      : 114 MiB (6%)\n\n************NORDIC_SUB***************","torrent":{"xt":"urn:btih:eb81b7ce5141de4de93b37a28915ab679c087e30","amp;dn":"The.Killing.Fields.1984.DVDRiP.XViD.Optional.NORDIC.Zen_Bud","amp;tr":["udp%3A%2F%2Ftracker.openbittorrent.com%3A80","udp%3A%2F%2Fopen.demonii.com%3A1337","udp%3A%2F%2Ftracker.coppersurfer.tk%3A6969","udp%3A%2F%2Fexodus.desync.com%3A6969"],"infoHash":"eb81b7ce5141de4de93b37a28915ab679c087e30","infoHashBuffer":{"type":"Buffer","data":[235,129,183,206,81,65,222,77,233,59,55,162,137,21,171,103,156,8,126,48]},"announce":[],"urlList":[]}}